# xmcd
#
# Track frame offsets:
#	150
#	16157
#	35625
#	51635
#
# Disc length: 946 seconds
#
# Revision: 1
# Processed by: cddbd v1.5.1PL0 Copyright (c) Steve Scherf et al.
# Submitted via: CDex 1.50Beta5
#
DISCID=3003b004
DTITLE=雲子 - Higher And Higher
DYEAR=1900
DGENRE=Pop
TTITLE0=Higher And Higher
TTITLE1=飛行船
TTITLE2=Higher And Higher (Off Vocal Version)
TTITLE3=飛行船 (Off Vocal Version)
EXTD=
EXTT0=
EXTT1=
EXTT2=
EXTT3=
PLAYORDER=
